<svg version="1.0" xmlns="http://www.w3.org/2000/svg" width="173.333" height="173.333" viewBox="0 0 130 130"><path d="M38.5 21.2C33 24.2 28 30.8 28 34.9c0 1.1-.8 2.8-1.9 3.8C23.7 41 21 46.4 21 48.9c0 1.1-.6 2.6-1.4 3.3-2.6 2.6-4.6 7.7-4.7 12-.1 2.4-.6 4.8-1.1 5.5-1.6 2-.5 6.7 1.9 7.8 1.8.8 2.3 1.9 2.5 6.5.3 5.1.5 5.5 3 5.8 2.5.3 2.7.8 3.3 6 .4 3.1.8 6.8 1 8.2.2 1.4.6 5 1 8 1.3 12.8 1.8 15.6 2.7 16.8 1.5 1.7 21.2 1.7 22.6-.1.6-.7 1.4-4 1.7-7.2.3-3.3.8-7.1 1-8.5.2-1.4.7-5.2 1-8.5.3-3.3.8-6.9 1-8 .2-1.1.4-3 .4-4.2.1-1.6.8-2.2 2.9-2.5 2.6-.3 2.7-.6 3-6 .2-3.2.7-5.8 1.2-5.8.6 0 1.9-.9 3-2 1.6-1.6 1.8-2.5 1-4.6-.6-1.5-.7-3.9-.2-5.8.4-1.7.8-3.6.7-4.1-.8-8.1-4.9-13.8-15.1-21.1-7.4-5.3-9.8-9.1-9.9-15.4 0-4.8-1.4-5.9-5-3.8zM40 27c0 3.4 2.9 9.3 5.7 11.7 1.4 1.3 5.2 4.2 8.4 6.5C61.3 50.5 65 56 65 61.5c0 6.2-.7 6.6-9.2 6.4-15-.4-27.5-5.5-30.4-12.5-1.6-3.7-1.1-8.5 1-11.6 1.3-1.9 1.5-1.8 3.2 1.1 3.1 5.2 16.4 12.5 18.7 10.2 1.3-1.3 1.5-1.2-6.6-5C32 45.5 29 39.7 32.2 32.3c1.2-2.8 5.6-7.3 7.1-7.3.4 0 .7.9.7 2zM22 56.9c0 1.5 5.9 7 9.7 9 3.1 1.5 12.7 4.8 14.8 5.1h9.6c8.1 0 9 .2 8.7 1.7-.2 1.3-1.5 1.9-4.6 2.1-2.8.2-4.2.8-4.2 1.8 0 .8.9 1.4 2 1.4 1.7 0 2 .7 2 4.5V87H21v-9h15.5c13.1 0 15.5-.2 15.5-1.5S49.3 75 33.9 75c-16.6 0-18-.1-17.7-1.7.2-1.1 1.5-2 3.3-2.3 3.5-.6 4-2.4.8-2.8-2.6-.4-3.1-3.7-1.2-9.1 1-2.8 2.9-4.3 2.9-2.2zM35.8 92c-.7 1.1-1.8 2-2.4 2-.6 0-1.9-.9-2.9-2-1.8-2-1.7-2 2.4-2 3.9 0 4 .1 2.9 2zm14.7 0c-1 1.1-2.3 2-2.9 2-.6 0-1.7-.9-2.4-2-1.1-1.9-1-2 2.9-2 4.1 0 4.2 0 2.4 2zm-7 3c1.8 2 1.8 2.1-.6 4.6l-2.5 2.5-2.4-2.6c-2.3-2.4-2.3-2.5-.5-4.5 2.3-2.5 3.7-2.5 6 0zm9.5 2c0 1.3-.5 1.8-1.5 1.4-1.2-.5-1.3-1-.4-2 1.5-1.9 1.9-1.8 1.9.6zm-17.2 5.3 2.2 2.3-2.4 2.3c-2.3 2.2-2.5 2.2-4.5.5-2.5-2.2-2.6-3.2-.4-5.6 2.1-2.3 2.5-2.3 5.1.5zm14.4-.6c2.4 2.1 2.3 3.9-.4 5.7-2 1.5-2.4 1.4-4.5-.6l-2.3-2.2 2.2-2.3c2.6-2.7 2.6-2.8 5-.6zM43.3 114c-2.7 2.4-2.5 2.4-5.1.1-2.7-2.3-2.7-2.8.1-5.1 2.2-1.8 2.2-1.8 4.7.5l2.4 2.5-2.1 2zm-5.3 5c0 1.1-6.5.7-7.2-.4-.4-.6 0-1.9.9-2.8 1.6-1.8 1.7-1.7 4 .4 1.3 1.2 2.3 2.4 2.3 2.8zm12.3-2.7c.9 2.3-.8 3.8-4.1 3.5-3.7-.3-3.8-.5-1.5-3 1.9-2.1 4.9-2.4 5.6-.5zm-.3 8.2c0 1.8.5 1.7-9.5 1.9-7.3.1-9.4-.4-9.5-2.7 0-.4 4.3-.7 9.5-.7 7.8 0 9.5.3 9.5 1.5z"/><path d="M69 101.9c-5.9 1.8-9.2 4.3-11 8.3-5.3 12 6.7 20.7 25.4 18.4 4.6-.6 5.6-1.1 5.6-2.7 0-1 .5-1.9 1-1.9.6 0 1 .4 1 .9 0 2 10.2 4.4 16.5 3.9 8.8-.8 11.9-2.4 12.2-6.8.1-1.9.5-5.1.7-7 1.1-8.7-6.6-14.7-17.6-13.6-3.3.3-7.5 1.4-9.3 2.5-3.1 1.8-3.3 1.8-3.8.2-.7-2.7-14.3-4.1-20.7-2.2zm18 2.6c.5.3.8 1.6.6 2.8-.3 1.2-.5 2.5-.5 2.9-.1.4-2.5.7-5.5.7-6.3 0-9.6 1.4-9.6 4 0 3.1 2.8 4.5 9.1 4.5H87v3.2c0 3.7-1.9 4.4-11.5 3.9-11.6-.6-17.2-4.9-16.2-12.5.7-5.5 4.3-8.6 11.7-10.1 3.9-.7 14.5-.3 16 .6zm25.6.3c4.3 2.3 7 7.6 5.3 10.3-.6 1-3.2 1.4-8.4 1.5-4.1 0-7.8.3-8.1.6-.3.4.6 1.4 1.9 2.3 2.5 1.6 5.6 1.6 12.3-.1 2-.5 2.2-.3 2 2.3-.3 2.4-.9 3-5.2 4.1-8.6 2.2-17.5.4-21.3-4.4-4.8-6.1-.9-14.9 7.8-17.4 3.5-1 11.2-.6 13.7.8zm-25.8 10.3c.6 3-11.6 3.1-12.5.2-.5-1.5 2.1-2.1 7.7-2 3.3.2 4.6.6 4.8 1.8z"/><path d="M102.7 109.6c-1.8 1.9-.5 3.4 2.9 3.4 2.8 0 3.5-.3 3.2-1.8-.3-1.7-4.8-2.9-6.1-1.6z"/></svg>