<svg width="84" height="18" viewBox="0 0 84 18" fill="none" xmlns="http://www.w3.org/2000/svg">
<path d="M1.98963 14V4.2H6.58163C7.75763 4.2 8.65363 4.43333 9.26963 4.9C9.88563 5.35733 10.1936 5.97333 10.1936 6.748C10.1936 7.27067 10.0723 7.71867 9.82963 8.092C9.58696 8.456 9.2603 8.74067 8.84963 8.946C8.4483 9.142 8.00963 9.24 7.53363 9.24L7.78563 8.736C8.3363 8.736 8.83096 8.83867 9.26963 9.044C9.7083 9.24 10.0536 9.52933 10.3056 9.912C10.567 10.2947 10.6976 10.7707 10.6976 11.34C10.6976 12.18 10.3756 12.8333 9.73163 13.3C9.08763 13.7667 8.13096 14 6.86163 14H1.98963ZM3.80963 12.572H6.74963C7.43096 12.572 7.95363 12.46 8.31763 12.236C8.68163 12.012 8.86363 11.6527 8.86363 11.158C8.86363 10.6727 8.68163 10.318 8.31763 10.094C7.95363 9.86067 7.43096 9.744 6.74963 9.744H3.66963V8.33H6.38563C7.0203 8.33 7.50563 8.218 7.84163 7.994C8.18696 7.77 8.35963 7.434 8.35963 6.986C8.35963 6.52867 8.18696 6.188 7.84163 5.964C7.50563 5.74 7.0203 5.628 6.38563 5.628H3.80963V12.572ZM15.636 14.098C15.0014 14.098 14.4414 13.9813 13.956 13.748C13.4707 13.5053 13.0927 13.1413 12.822 12.656C12.5514 12.1613 12.416 11.5407 12.416 10.794V6.524H14.166V10.556C14.166 11.228 14.3154 11.732 14.614 12.068C14.922 12.3947 15.356 12.558 15.916 12.558C16.3267 12.558 16.6814 12.474 16.98 12.306C17.288 12.138 17.526 11.886 17.694 11.55C17.8714 11.214 17.96 10.7987 17.96 10.304V6.524H19.71V14H18.044V11.984L18.338 12.6C18.086 13.0853 17.7174 13.4587 17.232 13.72C16.7467 13.972 16.2147 14.098 15.636 14.098ZM22.6173 16.814C22.2533 16.814 21.8893 16.7533 21.5253 16.632C21.1613 16.5107 20.858 16.3427 20.6153 16.128L21.3153 14.84C21.4927 14.9987 21.6933 15.1247 21.9173 15.218C22.1413 15.3113 22.37 15.358 22.6033 15.358C22.9207 15.358 23.1773 15.2787 23.3733 15.12C23.5693 14.9613 23.7513 14.6953 23.9193 14.322L24.3533 13.342L24.4933 13.132L27.3213 6.524H29.0013L25.5013 14.602C25.268 15.162 25.0067 15.6053 24.7173 15.932C24.4373 16.2587 24.12 16.4873 23.7653 16.618C23.42 16.7487 23.0373 16.814 22.6173 16.814ZM24.1573 14.266L20.7833 6.524H22.6033L25.3473 12.978L24.1573 14.266ZM38.2062 6.44C38.8035 6.44 39.3355 6.55667 39.8022 6.79C40.2782 7.02333 40.6515 7.38267 40.9222 7.868C41.1929 8.344 41.3282 8.96 41.3282 9.716V14H39.5782V9.94C39.5782 9.27733 39.4195 8.78267 39.1022 8.456C38.7942 8.12933 38.3602 7.966 37.8002 7.966C37.3895 7.966 37.0255 8.05 36.7082 8.218C36.3909 8.386 36.1435 8.638 35.9662 8.974C35.7982 9.30067 35.7142 9.716 35.7142 10.22V14H33.9642V6.524H35.6302V8.54L35.3362 7.924C35.5975 7.448 35.9755 7.084 36.4702 6.832C36.9742 6.57067 37.5529 6.44 38.2062 6.44ZM46.9219 14.098C46.1565 14.098 45.4752 13.9347 44.8779 13.608C44.2805 13.272 43.8092 12.8147 43.4639 12.236C43.1185 11.6573 42.9459 10.9993 42.9459 10.262C42.9459 9.51533 43.1185 8.85733 43.4639 8.288C43.8092 7.70933 44.2805 7.25667 44.8779 6.93C45.4752 6.60333 46.1565 6.44 46.9219 6.44C47.6965 6.44 48.3825 6.60333 48.9799 6.93C49.5865 7.25667 50.0579 7.70467 50.3939 8.274C50.7392 8.84333 50.9119 9.506 50.9119 10.262C50.9119 10.9993 50.7392 11.6573 50.3939 12.236C50.0579 12.8147 49.5865 13.272 48.9799 13.608C48.3825 13.9347 47.6965 14.098 46.9219 14.098ZM46.9219 12.6C47.3512 12.6 47.7339 12.5067 48.0699 12.32C48.4059 12.1333 48.6672 11.8627 48.8539 11.508C49.0499 11.1533 49.1479 10.738 49.1479 10.262C49.1479 9.77667 49.0499 9.36133 48.8539 9.016C48.6672 8.66133 48.4059 8.39067 48.0699 8.204C47.7339 8.01733 47.3559 7.924 46.9359 7.924C46.5065 7.924 46.1239 8.01733 45.7879 8.204C45.4612 8.39067 45.1999 8.66133 45.0039 9.016C44.8079 9.36133 44.7099 9.77667 44.7099 10.262C44.7099 10.738 44.8079 11.1533 45.0039 11.508C45.1999 11.8627 45.4612 12.1333 45.7879 12.32C46.1239 12.5067 46.5019 12.6 46.9219 12.6ZM54.0322 14L51.2882 6.524H52.9402L55.2922 13.118H54.5082L56.9722 6.524H58.4422L60.8362 13.118H60.0662L62.4882 6.524H64.0422L61.2842 14H59.6042L57.4202 8.162H57.9382L55.7122 14H54.0322Z" fill="#131313"/>
<path d="M76 5L80.95 9L76 13" stroke="#131313" stroke-width="2" stroke-linecap="round" stroke-linejoin="round"/>
</svg>
