<svg width="50" height="50" viewBox="0 0 50 50" fill="none" xmlns="http://www.w3.org/2000/svg">
<rect width="50" height="50" rx="25" fill="#F8D24E"/>
<path d="M22.9495 7.61529C18.4785 8.27834 14.7969 10.7607 13.4423 14.0112C13.0102 15.0381 12.8938 15.6688 12.8938 16.906C12.9021 17.8197 12.9354 18.1593 13.0766 18.6525C13.3675 19.6228 13.5753 20.1161 14.0074 20.8115L14.4063 21.4583L13.9576 22.0082C10.409 26.4231 10.0184 32.633 12.9769 37.525C14.0822 39.3605 15.8856 41.1637 17.6474 42.2148L18.171 42.5221L25.3346 42.4655L32.5066 42.4008L32.8473 42.2148C34.0357 41.5437 35.7144 40.0478 36.6535 38.8349C38.0663 36.9913 38.9888 34.8405 39.3794 32.5118C39.5123 31.6789 39.5123 29.2127 39.3711 28.4284C38.9472 26.0107 38.0414 23.9407 36.612 22.1052C36.3377 21.7575 36.1217 21.4664 36.1217 21.4422C36.1217 21.426 36.2712 21.1753 36.4458 20.8923C36.853 20.2455 37.2186 19.4126 37.4181 18.6849C37.6425 17.8763 37.6425 15.8548 37.4181 15.0462C36.6203 12.1757 34.2269 9.78231 30.8445 8.46431C29.8971 8.09236 28.2765 7.69615 27.2294 7.56678C26.2571 7.45358 23.8554 7.47783 22.9495 7.61529ZM28.0106 8.93329C32.4484 9.79848 35.6978 12.5153 36.2962 15.8629C36.4291 16.6149 36.346 17.8925 36.1217 18.604C35.8973 19.2994 35.4818 20.1161 34.9914 20.8115C34.792 21.0945 34.6258 21.4179 34.6258 21.523C34.6258 21.6281 34.8003 21.9031 35.0496 22.178C37.1272 24.4825 38.2242 27.3691 38.2242 30.4903C38.2159 34.04 36.853 37.1531 34.2269 39.595C33.7781 40.0155 33.1382 40.5411 32.7975 40.7675L32.1742 41.1879L25.3014 41.2122L18.4369 41.2445L17.905 40.9049C15.977 39.6516 14.2401 37.5816 13.2761 35.3823C12.0628 32.6007 11.9381 29.3744 12.9271 26.4797C13.4506 24.9757 14.1487 23.7467 15.2124 22.4529C15.6446 21.9354 15.844 21.6281 15.844 21.4826C15.844 21.3613 15.628 20.9651 15.3454 20.5527C14.3481 19.1053 13.9409 17.4963 14.1819 15.9761C14.4313 14.4398 15.1293 13.1784 16.4175 11.9251C18.0962 10.2998 20.4397 9.22438 23.1905 8.82009C24.3291 8.65029 26.8471 8.71497 28.0106 8.93329Z" fill="black"/>
<path d="M23.3229 10.3563C19.9155 10.9143 17.2479 12.8064 16.3753 15.2887C16.1758 15.8467 16.1426 16.065 16.1426 16.8655C16.1426 17.666 16.1758 17.8843 16.3753 18.4422C16.4999 18.798 16.7326 19.2913 16.8905 19.5419C17.3227 20.2373 17.5138 20.2616 18.3698 19.7441C19.6496 18.9597 21.1206 18.3856 22.6497 18.0703C23.6802 17.8601 25.6581 17.7792 26.78 17.9086C28.5335 18.1107 30.4366 18.7414 31.9575 19.639C32.3896 19.8896 32.8301 20.0999 32.9381 20.0999C33.5697 20.0999 34.3758 18.2805 34.3758 16.8655C34.3758 13.7201 31.3674 11.0275 27.1041 10.3563C26.1983 10.2108 24.1955 10.2108 23.3229 10.3563ZM27.4365 11.6501C28.866 11.9574 30.179 12.5395 31.168 13.3077C32.4976 14.3346 33.2123 15.7658 33.096 17.1485C33.0544 17.6983 32.8467 18.4422 32.722 18.5231C32.6888 18.5393 32.2234 18.3452 31.6915 18.0865C30.5862 17.5528 29.3313 17.1242 28.0598 16.8493C27.287 16.6876 26.9628 16.6633 25.2343 16.6714C23.5306 16.6714 23.1733 16.6957 22.4336 16.8493C21.1538 17.1242 20.1565 17.4639 18.9266 18.046C17.6883 18.6363 17.7548 18.6444 17.5304 17.9167C17.2396 16.9706 17.4224 15.7173 17.9875 14.7712C18.2867 14.2699 19.1094 13.4371 19.7078 13.0247C20.8463 12.2404 21.8436 11.8846 23.9877 11.4965C24.4281 11.4156 26.8714 11.5288 27.4365 11.6501Z" fill="black"/>
<path d="M26.0827 22.0808C25.85 22.3719 25.85 22.6468 26.091 22.8813C26.2489 23.035 26.4068 23.0754 26.9802 23.1158C28.0938 23.1967 29.1576 23.5201 30.1133 24.07C30.7947 24.4743 31.8335 25.4526 32.2989 26.1561C32.9887 27.1669 33.4624 28.6142 33.4624 29.6816C33.4624 30.0535 33.4956 30.1667 33.6702 30.3284C33.9361 30.5953 34.2851 30.5953 34.5428 30.3284C34.7256 30.1425 34.7339 30.0939 34.684 29.3015C34.4513 25.388 31.1022 22.1213 27.0966 21.9029L26.2655 21.8544L26.0827 22.0808Z" fill="black"/>
</svg>
